<!--?xml version="1.0" standalone="no"?-->
              <svg id="sw-js-blob-svg" viewBox="0 0 100 100" xmlns="http://www.w3.org/2000/svg" version="1.1">
                    <defs> 
                        <linearGradient id="sw-gradient" x1="0" x2="1" y1="1" y2="0">
                            <stop id="stop1" stop-color="rgba(203, 237, 213, 1)" offset="0%"></stop>
                            <stop id="stop2" stop-color="rgba(67, 154, 151, 1)" offset="100%"></stop>
                        </linearGradient>
                    </defs>
                <path fill="url(#sw-gradient)" d="M23,-37.5C29.8,-35.8,35.5,-29.8,37.9,-22.8C40.4,-15.8,39.6,-7.9,39.2,-0.2C38.8,7.4,38.7,14.9,35.8,21.1C32.9,27.2,27.1,32.1,20.7,35.5C14.3,38.9,7.1,40.7,-0.2,41C-7.5,41.3,-15,40.1,-21.8,37C-28.6,33.8,-34.7,28.7,-38.6,22.2C-42.5,15.7,-44.3,7.8,-42.8,0.9C-41.3,-6.1,-36.4,-12.1,-32.2,-18.2C-28,-24.2,-24.5,-30.2,-19.2,-32.8C-14,-35.3,-7,-34.4,0.5,-35.4C8.1,-36.3,16.1,-39.1,23,-37.5Z" width="100%" height="100%" transform="translate(50 50)" stroke-width="0" style="transition: all 0.3s ease 0s;" stroke="url(#sw-gradient)"></path>
              </svg>