<svg width="956" height="280" viewBox="0 0 956 280" fill="none" xmlns="http://www.w3.org/2000/svg">
<path d="M193 97.002H235.751V109.571H221.29V185.025H207.46V109.571H193V97.002Z" fill="black"/>
<path d="M260.903 97.002H274.733V185.025H260.903V97.002Z" fill="black"/>
<path d="M343.732 152.21V163.889C343.732 171.036 341.99 176.514 338.504 180.315C335.038 184.125 329.912 186.025 323.117 186.025C316.341 186.025 311.215 184.125 307.73 180.315C304.244 176.514 302.502 171.036 302.502 163.889V118.135C302.502 111.017 304.244 105.557 307.73 101.747C311.215 97.9188 316.341 96 323.117 96C329.912 96 335.038 97.9188 338.504 101.747C341.99 105.557 343.732 111.017 343.732 118.135V126.7H330.681V117.246C330.681 114.057 330.023 111.823 328.716 110.534C327.427 109.228 325.685 108.569 323.488 108.569C321.31 108.569 319.567 109.228 318.26 110.534C316.971 111.823 316.332 114.057 316.332 117.246V164.779C316.332 167.968 316.971 170.193 318.26 171.453C319.567 172.714 321.31 173.344 323.488 173.344C325.685 173.344 327.427 172.714 328.716 171.453C330.023 170.193 330.681 167.968 330.681 164.779V152.21H343.732Z" fill="black"/>
<path d="M389.135 149.949L384.871 157.995V185.025H371.041V97.002H384.871V135.377L403.224 97.002H416.795L397.551 136.23L416.795 185.025H402.594L389.135 149.949Z" fill="black"/>
<path d="M438.169 97.002H480.92V109.571H466.459V185.025H452.629V109.571H438.169V97.002Z" fill="black"/>
<path d="M518.752 164.779C518.752 167.968 519.392 170.22 520.68 171.527C521.987 172.816 523.73 173.455 525.908 173.455C528.105 173.455 529.848 172.816 531.136 171.527C532.443 170.22 533.101 167.968 533.101 164.779V117.246C533.101 114.057 532.443 111.823 531.136 110.534C529.848 109.228 528.105 108.569 525.908 108.569C523.73 108.569 521.987 109.228 520.68 110.534C519.392 111.823 518.752 114.057 518.752 117.246V164.779ZM504.922 118.135C504.922 111.017 506.721 105.557 510.336 101.747C513.941 97.9188 519.132 96 525.908 96C532.703 96 537.903 97.9188 541.518 101.747C545.124 105.557 546.931 111.017 546.931 118.135V163.889C546.931 171.036 545.124 176.514 541.518 180.315C537.903 184.125 532.703 186.025 525.908 186.025C519.132 186.025 513.941 184.125 510.336 180.315C506.721 176.514 504.922 171.036 504.922 163.889V118.135Z" fill="black"/>
<path d="M592.813 149.949L588.549 157.995V185.025H574.719V97.002H588.549V135.377L606.902 97.002H620.473L601.229 136.23L620.473 185.025H606.272L592.813 149.949Z" fill="black"/>
<path d="M641.847 97.002H684.597V109.571H670.137V185.025H656.307V109.571H641.847V97.002Z" fill="black"/>
<path d="M754.502 185.025H740.524L738.151 169.044H721.169L718.796 185.025H706.079L720.168 97.002H740.413L754.502 185.025ZM722.949 157.105H736.26L729.586 112.612L722.949 157.105Z" fill="black"/>
<path d="M777.999 118.135C777.999 111.017 779.686 105.557 783.079 101.747C786.49 97.9188 791.588 96 798.392 96C805.159 96 810.239 97.9188 813.631 101.747C817.042 105.557 818.748 111.017 818.748 118.135V121.547H805.659V117.246C805.659 114.057 805.048 111.823 803.843 110.534C802.628 109.228 800.932 108.569 798.763 108.569C796.585 108.569 794.879 109.228 793.646 110.534C792.432 111.823 791.829 114.057 791.829 117.246C791.829 120.267 792.497 122.937 793.832 125.254C795.185 127.553 796.872 129.732 798.874 131.78C800.876 133.838 803.027 135.886 805.326 137.935C807.643 139.993 809.812 142.236 811.814 144.683C813.835 147.112 815.522 149.874 816.857 152.989C818.192 156.085 818.859 159.718 818.859 163.889C818.859 171.036 817.117 176.514 813.631 180.315C810.164 184.125 805.038 186.025 798.244 186.025C791.44 186.025 786.305 184.125 782.82 180.315C779.353 176.514 777.629 171.036 777.629 163.889V157.883H790.717V164.779C790.717 167.968 791.357 170.193 792.645 171.453C793.952 172.714 795.695 173.344 797.873 173.344C800.042 173.344 801.776 172.714 803.064 171.453C804.371 170.193 805.029 167.968 805.029 164.779C805.029 161.767 804.362 159.106 803.027 156.808C801.692 154.49 800.005 152.303 797.984 150.245C795.982 148.196 793.813 146.148 791.496 144.09C789.197 142.041 787.046 139.807 785.044 137.379C783.042 134.932 781.355 132.169 780.002 129.073C778.667 125.987 777.999 122.344 777.999 118.135Z" fill="black"/>
<path d="M863.754 149.949L859.49 157.995V185.025H845.66V97.002H859.49V135.377L877.843 97.002H891.414L872.171 136.23L891.414 185.025H877.213L863.754 149.949Z" fill="black"/>
<path d="M914.79 118.135C914.79 111.017 916.477 105.557 919.87 101.747C923.281 97.9188 928.379 96 935.183 96C941.95 96 947.029 97.9188 950.422 101.747C953.833 105.557 955.539 111.017 955.539 118.135V121.547H942.45V117.246C942.45 114.057 941.839 111.823 940.634 110.534C939.419 109.228 937.723 108.569 935.554 108.569C933.376 108.569 931.67 109.228 930.437 110.534C929.223 111.823 928.62 114.057 928.62 117.246C928.62 120.267 929.288 122.937 930.623 125.254C931.976 127.553 933.663 129.732 935.665 131.78C937.667 133.838 939.818 135.886 942.117 137.935C944.434 139.993 946.603 142.236 948.605 144.683C950.626 147.112 952.313 149.874 953.648 152.989C954.983 156.085 955.65 159.718 955.65 163.889C955.65 171.036 953.907 176.514 950.422 180.315C946.955 184.125 941.829 186.025 935.035 186.025C928.231 186.025 923.096 184.125 919.61 180.315C916.144 176.514 914.42 171.036 914.42 163.889V157.883H927.508V164.779C927.508 167.968 928.148 170.193 929.436 171.453C930.743 172.714 932.486 173.344 934.664 173.344C936.833 173.344 938.566 172.714 939.855 171.453C941.162 170.193 941.82 167.968 941.82 164.779C941.82 161.767 941.153 159.106 939.818 156.808C938.483 154.49 936.796 152.303 934.775 150.245C932.773 148.196 930.604 146.148 928.287 144.09C925.988 142.041 923.837 139.807 921.835 137.379C919.833 134.932 918.146 132.169 916.793 129.073C915.458 125.987 914.79 122.344 914.79 118.135Z" fill="black"/>
<path d="M101 155.004C101 155.532 100.901 156.041 100.695 156.533C100.489 157.025 100.202 157.454 99.8251 157.829C99.4484 158.204 99.0179 158.499 98.5336 158.696C98.0404 158.902 97.5291 159 97 159C96.4709 159 95.9596 158.902 95.4664 158.696C94.9731 158.499 94.5426 158.204 94.1659 157.829C93.7982 157.454 93.5022 157.025 93.3049 156.533C93.0987 156.041 93 155.532 93 155.004C93 154.477 93.0987 153.968 93.3049 153.476C93.5022 152.984 93.7982 152.555 94.1659 152.18C94.5426 151.804 94.9731 151.509 95.4664 151.313C95.9596 151.107 96.4709 151 97 151C97.5291 151 98.0404 151.107 98.5336 151.313C99.0179 151.509 99.4484 151.804 99.8251 152.18C100.202 152.555 100.489 152.984 100.695 153.476C100.901 153.968 101 154.477 101 155.004Z" fill="#63CAC7"/>
<path d="M101 171.495C101 172.098 100.901 172.672 100.695 173.225C100.489 173.778 100.202 174.26 99.8251 174.683C99.4484 175.105 99.0179 175.427 98.5336 175.658C98.0404 175.889 97.5291 176 97 176C96.4709 176 95.9596 175.889 95.4664 175.658C94.9731 175.427 94.5426 175.105 94.1659 174.683C93.7982 174.26 93.5022 173.778 93.3049 173.225C93.0987 172.672 93 172.098 93 171.495C93 170.902 93.0987 170.328 93.3049 169.775C93.5022 169.222 93.7982 168.74 94.1659 168.317C94.5426 167.895 94.9731 167.573 95.4664 167.342C95.9596 167.111 96.4709 167 97 167C97.5291 167 98.0404 167.111 98.5336 167.342C99.0179 167.573 99.4484 167.895 99.8251 168.317C100.202 168.74 100.489 169.222 100.695 169.775C100.901 170.328 101 170.902 101 171.495Z" fill="#63CAC7"/>
<mask id="mask0_412_1256" style="mask-type:luminance" maskUnits="userSpaceOnUse" x="0" y="0" width="193" height="280">
<path d="M0.626831 0H192.838V279.418H0.626831V0Z" fill="white"/>
</mask>
<g mask="url(#mask0_412_1256)">
<path d="M125.746 129.956L143.608 113.596L152.173 105.8C167.662 91.7942 175.337 72.8103 175.634 47.6901V26.5929H188.602C189.158 26.6021 189.696 26.5094 190.215 26.3055C190.734 26.1016 191.188 25.7957 191.587 25.4064C191.985 25.0171 192.301 24.5629 192.514 24.053C192.727 23.534 192.838 22.9963 192.838 22.4402V4.48524C192.838 3.93834 192.727 3.40998 192.523 2.90016C192.31 2.39034 192.013 1.94541 191.624 1.55609C191.235 1.16678 190.79 0.870156 190.28 0.656958C189.779 0.44376 189.251 0.341797 188.704 0.341797H4.82597C4.27907 0.341797 3.75071 0.44376 3.24089 0.656958C2.74034 0.870156 2.28614 1.16678 1.90609 1.55609C1.51678 1.94541 1.22015 2.39034 1.00695 2.90016C0.793756 3.40998 0.691793 3.93834 0.691793 4.48524V22.4402C0.691793 22.9871 0.793756 23.5154 1.00695 24.0252C1.22015 24.5351 1.51678 24.9893 1.90609 25.3693C2.28614 25.7586 2.74034 26.0645 3.24089 26.2684C3.75071 26.4816 4.27907 26.5929 4.82597 26.5929H17.7939V47.6252C18.0905 72.6806 25.8027 91.6644 41.2827 105.633L51.2103 114.727L67.747 129.855C69.4896 131.171 70.88 132.784 71.9275 134.702C72.9749 136.612 73.5775 138.66 73.735 140.839C73.5218 143.082 72.8637 145.186 71.7514 147.151C70.6298 149.107 69.1652 150.757 67.3577 152.092L41.2178 176.044C25.7378 190.013 18.0627 208.997 17.729 234.117V252.434H4.82597C4.2698 252.434 3.73217 252.545 3.22235 252.758C2.70326 252.981 2.25833 253.286 1.86901 253.685C1.4797 254.084 1.18308 254.547 0.979146 255.066C0.775219 255.585 0.682524 256.123 0.691793 256.679V274.634C0.691793 275.181 0.793756 275.719 1.00695 276.219C1.22015 276.729 1.51678 277.183 1.90609 277.572C2.28614 277.962 2.74034 278.258 3.24089 278.472C3.75071 278.675 4.27907 278.787 4.82597 278.787H188.602C189.167 278.796 189.714 278.694 190.243 278.49C190.762 278.277 191.225 277.971 191.624 277.572C192.022 277.165 192.328 276.701 192.542 276.173C192.755 275.654 192.847 275.107 192.838 274.532V256.679C192.838 256.132 192.727 255.604 192.523 255.094C192.31 254.584 192.013 254.139 191.624 253.75C191.235 253.361 190.79 253.064 190.28 252.851C189.779 252.638 189.251 252.536 188.704 252.536H175.634V234.052C175.337 208.997 167.662 190.013 152.173 176.044L126.005 152.055C124.207 150.739 122.761 149.107 121.658 147.161C120.555 145.214 119.897 143.128 119.693 140.904C119.878 138.735 120.49 136.686 121.547 134.777C122.604 132.876 124.003 131.263 125.746 129.956ZM111.415 140.941C111.601 144.343 112.481 147.55 114.057 150.572C115.633 153.584 117.765 156.143 120.453 158.228L146.519 182.19C160.414 194.731 166.995 211.259 167.264 234.117V252.434H26.0623V234.154C26.3682 211.259 32.9495 194.731 46.8444 182.19L72.9749 158.256C75.6816 156.161 77.8321 153.584 79.4172 150.544C81.0023 147.504 81.8921 144.269 82.0775 140.839C81.9014 137.511 81.0486 134.378 79.5192 131.43C77.9804 128.483 75.8948 125.989 73.2716 123.95L56.7349 108.813L46.8073 99.7288C32.9495 87.178 26.3682 70.6598 26.0623 47.7921V26.5929H167.366V47.6252C167.097 70.5208 160.516 87.0482 146.621 99.5898C143.738 102.176 140.892 104.799 138.019 107.46L120.054 123.95C117.468 126.026 115.42 128.548 113.918 131.514C112.416 134.48 111.582 137.622 111.415 140.941Z" fill="#63CAC7"/>
</g>
<path d="M151.439 81.1517C151.906 80.3629 152.074 79.5284 151.971 78.6205C151.859 77.7217 151.486 76.9513 150.842 76.291C150.218 75.6216 149.453 75.2089 148.539 75.0621C147.625 74.9062 146.767 75.0438 145.955 75.4748C129.54 83.7104 123.384 86.801 97.9118 78.758C93.8732 77.4557 89.7414 76.5478 85.5256 76.0251C81.3004 75.5115 77.066 75.3923 72.8315 75.6766C68.5877 75.9517 64.4093 76.6304 60.2961 77.7034C56.1829 78.7672 52.2096 80.2162 48.3855 82.0412C47.8072 82.3072 47.3315 82.6832 46.9305 83.1693C46.5294 83.6462 46.2589 84.1964 46.1097 84.8017C45.9698 85.407 45.9605 86.0214 46.1004 86.6267C46.231 87.232 46.4921 87.7823 46.8838 88.2775C48.4788 90.1484 84.7048 124.393 85.0312 124.393C87.792 127.511 89.3403 131.134 89.6947 135.26C89.8066 136.095 90.0678 136.884 90.4782 137.617C90.8979 138.351 91.4389 138.984 92.1011 139.516C92.7633 140.048 93.5001 140.442 94.3116 140.69C95.1323 140.946 95.9625 141.038 96.8205 140.974C97.6227 141.047 98.4154 140.965 99.1989 140.736C99.9731 140.497 100.673 140.121 101.297 139.617C101.922 139.103 102.426 138.489 102.799 137.782C103.182 137.076 103.405 136.315 103.471 135.517C103.797 132.894 104.59 130.427 105.849 128.098C107.118 125.768 108.768 123.742 110.802 122.027C111.361 121.531 113.693 119.33 116.855 116.35C124.643 108.995 137.626 96.6506 141.189 93.56C145.284 89.9741 148.707 85.838 151.439 81.1517Z" fill="#63CAC7"/>
<path d="M40.0006 238.748C39.9914 239.314 40.0841 239.862 40.2882 240.381C40.5016 240.911 40.8078 241.375 41.1974 241.774C41.5963 242.173 42.0602 242.489 42.5797 242.702C43.0992 242.907 43.6466 243.009 44.2032 242.999H149.862C150.41 242.999 150.938 242.897 151.449 242.684C151.95 242.48 152.404 242.173 152.785 241.783C153.174 241.393 153.48 240.948 153.685 240.437C153.898 239.927 154 239.397 154 238.85C153.954 237.002 153.824 235.164 153.601 233.335C153.378 231.506 153.072 229.687 152.673 227.886C152.274 226.085 151.792 224.302 151.226 222.548C150.66 220.793 150.011 219.066 149.278 217.377C148.536 215.687 147.729 214.035 146.829 212.419C145.938 210.804 144.973 209.235 143.925 207.722C142.886 206.2 141.763 204.733 140.585 203.331C139.398 201.92 138.145 200.564 136.828 199.274C135.51 197.984 134.137 196.767 132.709 195.607C131.271 194.456 129.786 193.37 128.246 192.358C126.706 191.346 125.129 190.418 123.496 189.554C121.873 188.7 120.203 187.92 118.505 187.224C116.798 186.528 115.063 185.915 113.301 185.386C111.547 184.866 109.757 184.42 107.957 184.068C106.148 183.715 104.329 183.446 102.502 183.269C100.674 183.093 98.8372 183 97.0003 183C95.1634 183 93.3265 183.093 91.4989 183.269C89.6713 183.446 87.8529 183.715 86.0438 184.068C84.244 184.42 82.4535 184.866 80.7001 185.386C78.9374 185.915 77.2026 186.528 75.4956 187.224C73.7978 187.92 72.1279 188.7 70.5044 189.554C68.8716 190.418 67.2944 191.346 65.7544 192.358C64.2144 193.37 62.73 194.456 61.292 195.607C59.8633 196.767 58.4903 197.984 57.1729 199.274C55.8555 200.564 54.6031 201.92 53.4249 203.331C52.2374 204.733 51.1241 206.2 50.0758 207.722C49.0274 209.235 48.0626 210.804 47.172 212.419C46.2721 214.035 45.465 215.687 44.7228 217.377C43.9899 219.066 43.3405 220.793 42.7745 222.548C42.2086 224.302 41.7262 226.085 41.3273 227.886C40.9284 229.687 40.6222 231.506 40.3996 233.335C40.1769 235.164 40.047 237.002 40.0006 238.85V238.748Z" fill="#63CAC7"/>
</svg>
